External Loads File
version=1
nRows=46
nColumns=13
Range=5.000000e-03-10 seconds
endheader
time 	forceRightX 	forceRightY 	forceRightZ 	pointRightX 	pointRightY 	pointRightZ 	forceLeftX 	forceLeftY 	forceLeftZ 	pointLeftX 	pointLeftY 	pointLeftZ 		
0.005000 -38.467619 192.862929 -0.000000 0.387204 0.444007 -0.110165 -3.174501 265.409650 -0.000000 0.119359 0.203691 -0.352525
0.010000 -38.327459 193.802339 -0.000000 0.387198 0.443948 -0.110169 -5.051773 263.582851 -0.000000 0.119268 0.203790 -0.352527
0.015000 -38.169350 194.722830 -0.000000 0.387213 0.443869 -0.110175 -6.667806 261.964505 -0.000000 0.119181 0.203898 -0.352515
0.020000 -37.291350 195.727027 -0.000000 0.387252 0.443906 -0.110285 -6.969904 260.675602 -0.000000 0.119085 0.205859 -0.352495
0.025000 -36.221053 196.695698 -0.000000 0.387454 0.443866 -0.109913 -6.698737 259.701895 -0.000000 0.117499 0.206803 -0.354639
0.030000 -37.208195 197.211351 -0.000000 0.387487 0.443772 -0.109844 -8.887472 258.910213 -0.000000 0.118945 0.205519 -0.352475
0.035000 -37.085457 197.861265 -0.000000 0.387489 0.443647 -0.109895 -9.438083 258.361639 -0.000000 0.118846 0.205489 -0.352475
0.040000 -36.905237 198.435769 -0.000000 0.387512 0.443515 -0.109898 -9.793434 257.968494 -0.000000 0.118743 0.205498 -0.352474
0.045000 -37.203433 198.822230 -0.000000 0.387409 0.443398 -0.110076 -10.669952 257.676144 -0.000000 0.118648 0.204457 -0.352479
0.050000 -36.983390 199.210690 -0.000000 0.387423 0.443319 -0.110070 -10.783300 257.529834 -0.000000 0.118562 0.204528 -0.352480
0.055000 -36.761158 199.522293 -0.000000 0.387436 0.443276 -0.110074 -10.799827 257.500111 -0.000000 0.118478 0.204590 -0.352481
0.060000 -36.537927 199.767150 -0.000000 0.387452 0.443219 -0.110107 -10.692388 257.570567 -0.000000 0.118401 0.204661 -0.352482
0.065000 -36.389565 199.926483 -0.000000 0.387475 0.443167 -0.110142 -10.520797 257.709488 -0.000000 0.118336 0.204692 -0.352489
0.070000 -36.331344 199.985962 -0.000000 0.387484 0.443121 -0.110157 -10.306623 257.874625 -0.000000 0.118285 0.204739 -0.352491
0.075000 -36.361567 199.941284 -0.000000 0.387494 0.443075 -0.110171 -10.110687 258.013557 -0.000000 0.118235 0.204757 -0.352492
0.080000 -36.438437 199.811917 -0.000000 0.387521 0.443052 -0.110156 -9.972798 258.080342 -0.000000 0.118202 0.204786 -0.352492
0.085000 -36.531691 199.625694 -0.000000 0.387542 0.443033 -0.110149 -9.943059 258.037012 -0.000000 0.118178 0.204811 -0.352491
0.090000 -36.620924 199.406403 -0.000000 0.387563 0.443024 -0.110140 -10.043562 257.865965 -0.000000 0.118162 0.204843 -0.352476
0.095000 -36.691078 199.172629 -0.000000 0.387615 0.443002 -0.110112 -10.242146 257.582476 -0.000000 0.118138 0.204860 -0.352483
0.100000 -36.776925 198.935023 -0.000000 0.387651 0.442997 -0.110101 -10.529701 257.218918 -0.000000 0.118122 0.204888 -0.352478
0.105000 -36.875560 198.710501 -0.000000 0.387690 0.442978 -0.110089 -10.838405 256.811459 -0.000000 0.118109 0.204897 -0.352478
0.110000 -36.967846 198.508215 -0.000000 0.387741 0.442937 -0.110116 -11.092298 256.386719 -0.000000 0.118091 0.204919 -0.352462
0.115000 -37.099482 198.309789 -0.000000 0.387794 0.442935 -0.110088 -11.309567 255.957761 -0.000000 0.118079 0.204954 -0.352454
0.120000 -37.257791 198.098927 -0.000000 0.387845 0.442910 -0.110115 -11.443380 255.532199 -0.000000 0.118058 0.204984 -0.352462
0.125000 -37.461240 197.855314 -0.000000 0.387917 0.442884 -0.110127 -11.527795 255.095330 -0.000000 0.118056 0.204993 -0.352439
0.130000 -37.670352 197.575801 -0.000000 0.387987 0.442848 -0.110117 -11.565201 254.622267 -0.000000 0.118054 0.205028 -0.352433
0.135000 -37.880260 197.252749 -0.000000 0.388071 0.442843 -0.110113 -11.615266 254.092779 -0.000000 0.118043 0.205055 -0.352431
0.140000 -38.080660 196.879242 -0.000000 0.388137 0.442838 -0.110102 -11.722401 253.502703 -0.000000 0.118048 0.205039 -0.352424
0.145000 -38.194745 196.466262 -0.000000 0.388216 0.442828 -0.110101 -11.818460 252.870645 -0.000000 0.118072 0.205067 -0.352410
0.150000 -38.229241 196.014935 -0.000000 0.388315 0.442819 -0.110065 -11.899731 252.224706 -0.000000 0.118081 0.205076 -0.352410
0.155000 -38.224750 195.519481 -0.000000 0.388384 0.442832 -0.110073 -11.963256 251.601477 -0.000000 0.118101 0.205067 -0.352405
0.160000 -38.164728 194.981920 -0.000000 0.388444 0.442847 -0.110075 -11.917561 251.041267 -0.000000 0.118137 0.205069 -0.352395
0.165000 -38.047030 194.402150 -0.000000 0.388510 0.442854 -0.110071 -11.723862 250.553115 -0.000000 0.118165 0.205050 -0.352400
0.170000 -37.887951 193.783409 -0.000000 0.388560 0.442883 -0.110108 -11.428474 250.098920 -0.000000 0.118202 0.205048 -0.352396
0.175000 -37.695447 193.141466 -0.000000 0.388600 0.442903 -0.110128 -11.106624 249.622332 -0.000000 0.118258 0.205023 -0.352388
0.180000 -37.450246 192.504592 -0.000000 0.388637 0.442928 -0.110130 -10.793380 249.090528 -0.000000 0.118314 0.205004 -0.352374
0.185000 -37.143550 191.895390 -0.000000 0.388676 0.442965 -0.110148 -10.518444 248.492292 -0.000000 0.118364 0.204988 -0.352383
0.190000 -36.799945 191.322578 -0.000000 0.388697 0.443007 -0.110136 -10.351307 247.805997 -0.000000 0.118433 0.204949 -0.352370
0.195000 -36.395016 190.800601 -0.000000 0.388726 0.443041 -0.110132 -10.283530 247.005140 -0.000000 0.118495 0.204933 -0.352364
0.200000 -36.003117 190.316353 -0.000000 0.388743 0.443102 -0.110126 -10.391233 246.076487 -0.000000 0.118555 0.204895 -0.352359
0.205000 -35.626351 189.854502 -0.000000 0.388755 0.443143 -0.110132 -10.602614 245.050075 -0.000000 0.118621 0.204869 -0.352354
0.210000 -35.309090 189.381936 -0.000000 0.388758 0.443201 -0.110125 -10.863372 243.997300 -0.000000 0.118675 0.204825 -0.352342
0.215000 -35.060014 188.878825 -0.000000 0.388755 0.443282 -0.110134 -11.076433 243.011508 -0.000000 0.118759 0.204787 -0.352349
0.220000 -34.806208 188.357118 -0.000000 0.388756 0.443311 -0.110142 -11.071495 242.183503 -0.000000 0.118814 0.204755 -0.352348
0.225000 -34.581727 187.825661 -0.000000 0.388743 0.443360 -0.110142 -10.867892 241.564500 -0.000000 0.118880 0.204709 -0.352348
0.230000 -34.334609 187.325213 -0.000000 0.388727 0.443402 -0.110159 -10.441098 241.156007 -0.000000 0.118929 0.204666 -0.352366
